<svg xmlns="http://www.w3.org/2000/svg" fill="none" viewBox="0 0 32 32"><path fill="#000" d="M26.672 9.546c-.162.126-3.03 1.742-3.03 5.335 0 4.155 3.649 5.625 3.758 5.662-.017.09-.58 2.013-1.924 3.974-1.198 1.724-2.45 3.447-4.354 3.447s-2.394-1.106-4.593-1.106c-2.142 0-2.903 1.142-4.645 1.142-1.742 0-2.957-1.596-4.355-3.556-1.618-2.302-2.926-5.878-2.926-9.272 0-5.444 3.54-8.33 7.023-8.33 1.851 0 3.394 1.214 4.556 1.214 1.106 0 2.831-1.288 4.937-1.288.798 0 3.666.073 5.553 2.778Zm-6.553-5.082c.871-1.034 1.487-2.467 1.487-3.901 0-.199-.017-.4-.053-.563-1.417.053-3.103.944-4.12 2.123-.797.907-1.542 2.34-1.542 3.794 0 .218.036.437.053.507.09.017.235.036.381.036 1.271 0 2.87-.851 3.794-1.996Z"/></svg>