<svg xmlns="http://www.w3.org/2000/svg" fill="none" viewBox="0 0 32 32"><path fill="#4285F4" d="M29.427 16.318c0-.993-.09-1.947-.255-2.864H15.987v5.422h7.534c-.33 1.744-1.323 3.22-2.813 4.213v3.526h4.544c2.647-2.444 4.175-6.033 4.175-10.297Z"/><path fill="#34A853" d="M15.987 30c3.78 0 6.949-1.247 9.265-3.386L20.71 23.09c-1.248.84-2.839 1.35-4.722 1.35-3.64 0-6.733-2.457-7.84-5.766H3.489v3.614C5.792 26.857 10.514 30 15.987 30Z"/><path fill="#FBBC05" d="M8.147 18.66A8.39 8.39 0 0 1 7.7 16c0-.93.166-1.82.446-2.66V9.725H3.489A13.827 13.827 0 0 0 1.987 16c0 2.265.547 4.39 1.502 6.275l3.627-2.826 1.03-.789Z"/><path fill="#EA4335" d="M15.987 7.575c2.062 0 3.894.712 5.358 2.087l4.009-4.01C22.924 3.388 19.767 2 15.987 2 10.514 2 5.792 5.144 3.489 9.725l4.658 3.615c1.107-3.31 4.2-5.765 7.84-5.765Z"/></svg>